<?xml version="1.0" standalone="no"?>
<!DOCTYPE svg PUBLIC "-//W3C//DTD SVG 20010904//EN"
 "http://www.w3.org/TR/2001/REC-SVG-20010904/DTD/svg10.dtd">
<svg version="1.0" xmlns="http://www.w3.org/2000/svg"
 width="544.000000pt" height="544.000000pt" viewBox="0 0 544.000000 544.000000"
 preserveAspectRatio="xMidYMid meet">
<metadata>
Created by potrace 1.11, written by Peter Selinger 2001-2013
</metadata>
<g transform="translate(0.000000,544.000000) scale(0.100000,-0.100000)"
fill="#000000" stroke="none">
<path d="M2590 4731 c-63 -24 -141 -78 -220 -151 -9 -8 -36 -31 -60 -50 -24
-19 -76 -62 -115 -95 -39 -33 -93 -78 -119 -100 -27 -22 -56 -47 -66 -55 -10
-8 -39 -33 -66 -55 -27 -22 -56 -48 -66 -57 -10 -10 -22 -18 -27 -18 -5 0 -11
-3 -13 -7 -1 -5 -30 -30 -63 -58 -33 -27 -62 -52 -65 -55 -4 -4 -66 -56 -133
-110 -10 -8 -28 -23 -40 -33 -101 -86 -121 -102 -476 -396 -24 -20 -49 -41
-55 -46 -6 -6 -63 -53 -126 -105 -63 -52 -120 -99 -126 -105 -6 -5 -31 -26
-54 -45 -24 -19 -62 -51 -85 -70 -54 -45 -123 -103 -211 -176 -196 -163 -190
-157 -202 -182 -21 -45 -1 -97 63 -167 25 -27 69 -80 98 -117 89 -114 141
-119 248 -26 15 13 48 41 75 63 43 36 80 67 155 130 13 11 50 41 82 67 53 43
77 63 128 111 10 9 23 17 28 17 5 0 11 4 13 9 2 4 37 36 78 70 41 34 90 74
108 89 18 15 43 36 55 47 13 11 42 35 65 53 22 19 51 43 64 54 13 11 36 29 51
41 16 12 35 28 43 36 15 14 64 55 143 120 69 56 133 110 167 139 16 15 50 43
74 62 24 19 51 42 60 50 9 8 38 33 65 55 28 22 55 44 61 50 6 5 29 25 52 43
23 19 51 43 64 54 13 11 39 32 58 47 19 14 42 33 50 41 28 26 151 128 198 165
7 6 19 16 27 23 8 7 45 38 81 68 65 53 68 54 88 37 11 -10 26 -22 34 -28 7 -5
21 -17 30 -26 9 -8 44 -37 77 -65 33 -27 65 -54 71 -59 6 -6 39 -33 73 -60 33
-28 61 -53 61 -57 0 -5 5 -8 10 -8 9 0 32 -18 84 -65 6 -6 36 -30 66 -55 30
-25 57 -47 60 -50 3 -3 30 -25 60 -50 30 -25 66 -55 80 -66 14 -12 68 -57 120
-100 52 -43 97 -81 100 -84 3 -3 43 -36 90 -74 47 -38 90 -75 96 -82 6 -8 14
-14 18 -14 3 0 14 -8 24 -17 18 -18 55 -50 133 -113 45 -38 167 -139 238 -198
24 -20 57 -48 74 -62 17 -14 49 -41 72 -60 22 -19 60 -51 84 -70 24 -19 48
-40 55 -45 6 -6 43 -37 81 -69 122 -101 157 -130 184 -154 14 -12 45 -36 69
-51 42 -29 69 -30 122 -7 17 8 211 240 229 274 23 44 2 103 -50 142 -18 14
-40 32 -49 40 -9 8 -49 42 -90 75 -87 70 -117 94 -140 115 -9 8 -52 44 -95 80
-44 36 -89 73 -100 82 -11 9 -30 25 -41 35 -12 10 -49 41 -83 68 -44 36 -61
57 -62 75 0 14 -1 306 -1 650 0 687 1 669 -61 694 -45 18 -662 16 -695 -2 -52
-30 -53 -36 -53 -377 l0 -317 -22 20 c-12 10 -67 57 -122 102 -55 46 -102 86
-105 89 -3 3 -27 24 -55 46 -27 21 -52 42 -55 45 -3 3 -25 21 -50 40 -24 19
-52 42 -60 50 -9 8 -38 33 -65 55 -27 22 -65 54 -84 71 -20 17 -47 39 -59 50
-13 10 -38 32 -55 47 -18 15 -59 42 -92 60 -55 29 -69 32 -160 33 -73 1 -112
-3 -145 -15z"/>
<path d="M2675 3914 c-16 -15 -42 -37 -57 -50 -15 -13 -30 -24 -33 -24 -2 0
-18 -12 -34 -27 -16 -16 -36 -33 -43 -38 -7 -6 -40 -33 -73 -60 -32 -28 -68
-57 -78 -65 -11 -8 -40 -32 -66 -54 -25 -21 -55 -45 -66 -55 -25 -20 -123
-100 -150 -123 -11 -9 -40 -33 -65 -53 -25 -20 -54 -44 -65 -53 -11 -9 -58
-48 -105 -86 -47 -37 -89 -74 -95 -80 -5 -6 -28 -24 -50 -40 -22 -17 -42 -32
-45 -36 -3 -3 -30 -25 -60 -50 -30 -25 -57 -47 -60 -50 -3 -4 -43 -37 -90 -75
-47 -37 -87 -71 -90 -75 -3 -3 -47 -39 -97 -80 -51 -40 -93 -78 -93 -83 0 -6
-3 -8 -6 -4 -4 3 -12 1 -18 -6 -7 -7 -32 -28 -57 -49 -24 -20 -72 -59 -105
-87 l-61 -50 1 -788 c1 -867 -3 -811 62 -877 64 -63 28 -60 717 -62 l627 -1 1
61 c0 34 0 304 0 602 l1 541 398 0 398 1 1 -572 c0 -314 0 -585 0 -602 l1 -30
628 0 627 1 47 28 c52 30 80 64 96 117 7 24 10 287 10 803 l-1 768 -56 47
c-31 26 -61 52 -67 57 -6 6 -30 26 -54 45 -24 19 -100 82 -169 139 -69 57
-144 119 -166 137 -47 38 -221 182 -250 206 -11 9 -40 33 -65 53 -64 53 -122
100 -220 180 -47 39 -141 117 -210 174 -69 56 -134 110 -145 119 -11 10 -56
46 -100 82 -44 35 -86 70 -93 77 -7 7 -34 29 -60 50 -26 21 -49 40 -52 43 -21
21 -100 80 -107 80 -4 0 -21 -12 -38 -26z"/>
</g>
</svg>
