<svg xmlns="http://www.w3.org/2000/svg" viewBox="0 0 84 23" width="84" height="23">
	<style>
		tspan { white-space:pre }
	</style>
	<path id="Interior." fill="#ffffff" d="M0.32 22L0.32 0.25L1.28 0.25L1.28 22L0.32 22ZM6.27 14.4L6.27 22L5.34 22L5.34 8.95L6.27 8.95L6.27 11.59Q7.74 8.63 11.31 8.63Q13.75 8.63 15.4 10.31Q17.05 11.99 17.05 14.4L17.05 22L16.13 22L16.13 14.4Q16.13 12.4 14.7 10.92Q13.31 9.44 11.31 9.44Q9.31 9.44 7.77 10.92Q6.27 12.4 6.27 14.4ZM25.2 21.36L25.2 22.17Q23.14 22.17 21.69 20.81Q20.24 19.42 20.24 17.27L20.24 3.7L21.17 3.7L21.17 8.98L25.17 8.98L25.17 9.79L21.17 9.79L21.17 17.27Q21.17 19.04 22.33 20.2Q23.52 21.36 25.2 21.36ZM34.05 22.35L33.79 22.35Q31.03 22.35 28.97 20.29Q26.94 18.2 26.94 15.45Q26.94 12.69 28.97 10.69Q31 8.66 33.99 8.66Q36.98 8.66 39.12 11.04L30.02 20.03Q31.9 21.54 33.64 21.54Q35.38 21.54 36.74 20.75Q38.14 19.94 39.04 18.61L39.04 20.09Q36.98 22.35 34.05 22.35ZM33.73 9.47Q31.44 9.47 29.64 11.27Q27.87 13.04 27.87 15.36Q27.87 17.68 29.41 19.42L37.85 11.04Q36.05 9.47 33.73 9.47ZM49.5 10.72Q48.23 9.44 46.69 9.44Q45.15 9.44 43.97 10.6Q42.8 11.76 42.8 13.3L42.8 22L41.88 22L41.88 8.95L42.8 8.95L42.8 10.89Q43.33 9.91 44.43 9.27Q45.53 8.63 46.89 8.63Q48.26 8.63 49.5 9.56L49.5 10.72ZM52.35 8.98L53.27 8.98L53.27 22L52.35 22L52.35 8.98ZM52.81 5.79Q51.97 5.79 51.97 5.01Q51.97 4.22 52.81 4.22Q53.65 4.22 53.65 5.01Q53.65 5.79 52.81 5.79ZM63.19 22.32Q60.41 22.32 58.41 20.26Q56.41 18.17 56.41 15.42Q56.41 12.66 58.44 10.66Q60.47 8.63 63.31 8.63Q66.18 8.63 68.18 10.66Q70.21 12.66 70.21 15.45Q70.21 18.2 68.24 20.26Q66.27 22.32 63.45 22.32L63.19 22.32ZM69.28 15.5Q69.28 13.04 67.51 11.24Q65.77 9.44 63.34 9.44Q60.9 9.44 59.1 11.27Q57.33 13.07 57.33 15.5Q57.33 17.94 59.1 19.74Q60.9 21.51 63.34 21.51Q65.8 21.51 67.54 19.74Q69.28 17.94 69.28 15.5ZM80.59 10.72Q79.32 9.44 77.78 9.44Q76.24 9.44 75.05 10.6Q73.89 11.76 73.89 13.3L73.89 22L72.96 22L72.96 8.95L73.89 8.95L73.89 10.89Q74.41 9.91 75.52 9.27Q76.62 8.63 77.98 8.63Q79.34 8.63 80.59 9.56L80.59 10.72Z" />
	<path id="Interior." fill="#ffd500" d="M81.21 22.38Q79.38 22.38 79.38 20.7Q79.38 19.03 81.21 19.03Q83.1 19.03 83.1 20.7Q83.1 22.38 81.21 22.38Z" />
</svg>